<?xml version="1.0" encoding="UTF-8" standalone="no"?>
<!DOCTYPE svg PUBLIC "-//W3C//DTD SVG 1.1//EN" "http://www.w3.org/Graphics/SVG/1.1/DTD/svg11.dtd">
<svg width="100%" height="100%" viewBox="0 0 1000 1000" version="1.1" xmlns="http://www.w3.org/2000/svg" xmlns:xlink="http://www.w3.org/1999/xlink" xml:space="preserve" xmlns:serif="http://www.serif.com/" style="fill-rule:evenodd;clip-rule:evenodd;stroke-linejoin:round;stroke-miterlimit:2;">
    <g transform="matrix(13.00245,0,0,13.00245,-2523.663974,-280.147005)">
        <circle cx="249" cy="60" r="22" style="fill:rgb(20,20,19);"/>
    </g>
    <g transform="matrix(1.625442,0,0,2.38342,344.158112,88.860104)">
        <ellipse cx="227.5" cy="172.5" rx="141.5" ry="96.5" style="fill:white;"/>
    </g>
    <g transform="matrix(13.00245,0,0,13.00245,-2951.55617,-280.147005)">
        <circle cx="249" cy="60" r="22" style="fill:rgb(20,20,19);"/>
    </g>
    <g transform="matrix(1.137714,0,0,1.137714,-93.709851,493.452444)">
        <g transform="matrix(400,0,0,400,212.395335,151.755009)">
            <path d="M0.304,0.01C0.258,0.01 0.217833333333,0.001333333333 0.1835,-0.016C0.149166666667,-0.033333333333 0.122666666667,-0.058166666667 0.104,-0.0905C0.085333333333,-0.122833333333 0.076,-0.160666666667 0.076,-0.204L0.076,-0.526C0.076,-0.57 0.085333333333,-0.608 0.104,-0.64C0.122666666667,-0.672 0.149166666667,-0.696666666667 0.1835,-0.714C0.217833333333,-0.731333333333 0.258,-0.74 0.304,-0.74C0.350666666667,-0.74 0.390833333333,-0.731166666667 0.4245,-0.7135C0.458166666667,-0.695833333333 0.484333333333,-0.671166666667 0.503,-0.6395C0.521666666667,-0.607833333333 0.531,-0.57 0.531,-0.526L0.415,-0.526C0.415,-0.562 0.405333333333,-0.5895 0.386,-0.6085C0.366666666667,-0.6275 0.339333333333,-0.637 0.304,-0.637C0.268666666667,-0.637 0.241166666667,-0.6275 0.2215,-0.6085C0.201833333333,-0.5895 0.192,-0.562 0.192,-0.526L0.192,-0.204C0.192,-0.168666666667 0.201833333333,-0.141333333333 0.2215,-0.122C0.241166666667,-0.102666666667 0.268666666667,-0.093 0.304,-0.093C0.339333333333,-0.093 0.366666666667,-0.102666666667 0.386,-0.122C0.405333333333,-0.141333333333 0.415,-0.168666666667 0.415,-0.204L0.531,-0.204C0.531,-0.161333333333 0.521666666667,-0.123833333333 0.503,-0.0915C0.484333333333,-0.059166666667 0.458166666667,-0.034166666667 0.4245,-0.0165C0.390833333333,0.001166666667 0.350666666667,0.01 0.304,0.01Z" style="fill:white;fill-rule:nonzero;"/>
        </g>
    </g>
    <g transform="matrix(1.137714,0,0,1.137714,-85.699933,499.948626)">
        <g transform="matrix(400,0,0,400,605.917315,146.045156)">
            <path d="M0.106,-0L0.106,-0.73L0.223,-0.73L0.223,-0.108L0.537,-0.108L0.537,-0L0.106,-0Z" style="fill-rule:nonzero;"/>
        </g>
    </g>
</svg>
